<?xml version="1.0" encoding="UTF-8"?> <svg xmlns="http://www.w3.org/2000/svg" xmlns:xlink="http://www.w3.org/1999/xlink" width="1190px" height="590px" viewBox="0 0 1190 590"><!-- Generator: Sketch 52 (66869) - http://www.bohemiancoding.com/sketch --><title>Logo TechForce - landscape</title><desc>Created with Sketch.</desc><g id="Logo-TechForce---landscape" stroke="none" stroke-width="1" fill="none" fill-rule="evenodd"><g id="Monogram" transform="translate(50.000000, 50.000000)" fill-rule="nonzero"><rect id="Rectangle" fill="#233D4D" x="0" y="0" width="150" height="150"></rect><rect id="Rectangle" fill="#233D4D" x="170" y="0" width="150" height="150"></rect><rect id="Rectangle" fill="#233D4D" x="340" y="0" width="150" height="150"></rect><rect id="Rectangle" fill="#233D4D" x="170" y="170" width="150" height="150"></rect><rect id="Rectangle" fill="#233D4D" x="170" y="340" width="150" height="150"></rect><rect id="Rectangle" fill="#FE7F2D" x="340" y="170" width="150" height="150"></rect></g><path d="M593.936,88.272 L593.936,79.728 L643.568,79.728 L643.568,88.272 L622.928,88.272 L622.928,150 L614.096,150 L614.096,88.272 L593.936,88.272 Z M659.216,121.104 L678.32,121.104 C682.16,121.104 683.888,119.568 683.888,116.688 C683.888,107.568 682.256,106.608 672.944,106.608 C663.056,106.608 659.12,106.8 659.216,121.104 Z M650.384,124.272 C650.384,101.712 656.816,98.64 672.656,98.64 C685.424,98.64 692.72,99.888 692.72,116.784 C692.72,124.656 688.496,128.88 679.28,128.88 L659.216,128.88 C659.216,140.112 661.712,142.416 669.2,142.416 C677.744,142.416 684.56,142.512 691.76,141.36 L691.76,147.792 C684.08,150.096 675.152,150.48 667.184,150.48 C654.224,150.48 650.384,143.856 650.384,124.272 Z M700.784,124.464 C700.784,102.576 707.792,98.544 717.584,98.544 C722.576,98.544 732.656,99.504 739.856,101.232 L739.856,107.184 C739.856,107.184 727.664,106.608 719.12,106.608 C713.264,106.608 709.616,107.568 709.616,124.848 C709.616,139.056 712.208,142.32 719.12,142.32 C727.952,142.32 740.528,141.36 740.528,141.36 L740.528,147.6 C732.848,150.192 725.552,150.384 717.584,150.48 C708.08,150.48 700.784,146.448 700.784,124.464 Z M749.456,150 L749.456,74.736 L758.288,74.736 L758.288,104.88 C763.664,101.52 768.656,98.16 776.432,98.16 C786.992,98.16 791.984,106.128 791.984,114.864 L791.984,150 L783.152,150 L783.152,114.864 C783.152,108.912 779.888,106.224 775.376,106.224 C768.272,106.224 764.72,108.048 758.288,111.408 L758.288,150 L749.456,150 Z M803.504,150 L803.504,92.88 C803.504,82.896 809.744,79.44 816.464,79.728 C816.464,79.728 845.264,81.072 846.992,81.264 L846.992,88.368 L817.328,88.368 C812.336,88.368 812.336,91.152 812.336,93.744 L812.336,110.64 L842.96,111.6 L842.96,118.8 L812.336,119.76 L812.336,150 L803.504,150 Z M864.176,125.232 C864.176,141.168 868.88,142.32 878,142.32 C887.6,142.32 891.824,141.072 891.824,125.232 C891.824,108.048 888.368,106.608 878,106.608 C868.016,106.608 864.176,108.048 864.176,125.232 Z M855.344,125.232 C855.344,104.4 861.104,98.544 878,98.544 C895.28,98.544 900.656,104.976 900.656,125.232 C900.656,144.144 895.376,150.48 878,150.48 C860.72,150.48 855.344,143.472 855.344,125.232 Z M910.448,150 L910.448,99.024 L917.168,99.024 L919.28,105.456 C924.464,102.096 929.648,98.448 937.136,98.448 C939.728,98.448 942.608,98.64 943.856,99.216 L943.856,107.856 C942.608,107.568 939.44,107.376 936.656,107.376 C929.552,107.376 925.616,109.008 919.28,112.944 L919.28,150 L910.448,150 Z M950.192,124.464 C950.192,102.576 957.2,98.544 966.992,98.544 C971.984,98.544 982.064,99.504 989.264,101.232 L989.264,107.184 C989.264,107.184 977.072,106.608 968.528,106.608 C962.672,106.608 959.024,107.568 959.024,124.848 C959.024,139.056 961.616,142.32 968.528,142.32 C977.36,142.32 989.936,141.36 989.936,141.36 L989.936,147.6 C982.256,150.192 974.96,150.384 966.992,150.48 C957.488,150.48 950.192,146.448 950.192,124.464 Z M1006.832,121.104 L1025.936,121.104 C1029.776,121.104 1031.504,119.568 1031.504,116.688 C1031.504,107.568 1029.872,106.608 1020.56,106.608 C1010.672,106.608 1006.736,106.8 1006.832,121.104 Z M998,124.272 C998,101.712 1004.432,98.64 1020.272,98.64 C1033.04,98.64 1040.336,99.888 1040.336,116.784 C1040.336,124.656 1036.112,128.88 1026.896,128.88 L1006.832,128.88 C1006.832,140.112 1009.328,142.416 1016.816,142.416 C1025.36,142.416 1032.176,142.512 1039.376,141.36 L1039.376,147.792 C1031.696,150.096 1022.768,150.48 1014.8,150.48 C1001.84,150.48 998,143.856 998,124.272 Z" id="TechForce" fill="#233D4D"></path></g></svg> 